<?xml version="1.0" standalone="no"?>
<svg width="250" height="250" version="1.1" xmlns="http://www.w3.org/2000/svg">
  <rect x="2" y="2" width="246" height="246" stroke="blue" fill="white" stroke-width="5"/>
  <polygon points="125.0 235.0 132.0834636956955 234.21152648284158 138.73933998788917 231.90613635484712 144.57313257141283 228.2592702550888 149.25396356295462 223.54818745916572 152.5401719075334 218.13048638159572 154.29799960145425 212.41640131779155 154.51191799779903 206.83702177940074 153.2857941585403 201.81089668022818 150.83480689947024 197.71161076606344 147.46873885653713 194.83884535538056 143.56793905877154 193.39516550509327 139.55381835724316 193.4703320513664 135.85616363523002 195.03435397349267 132.87980319479016 197.93981935806667 130.9732059835381 201.93332436601617 130.40144749801 206.67511472245533 131.3256368846644 211.7654179707232 133.7903991678422 216.77542635406277 137.72038245004327 221.28052987335346 142.9260607055794 224.8932247331113 149.11838259756104 227.2931475376002 155.93113138823077 228.25190828584226 162.94926358323593 227.65079818555105 169.741030738338 225.4900003406861 175.8913957503937 221.88858969567804 181.0341546621178 217.07532223633996 184.88027530246228 211.37092706445205 187.24025719111208 205.16327329135345 188.03878034769028 198.87733573055226 187.3205080756888 192.9422863405995 185.24659415108485 187.7582610564171 182.08216503670627 183.6653767968998 178.17574696770762 180.91739910041207 173.93223183748472 179.66210052475728 169.78147640508078 179.9298315702911 166.14496766047313 181.63118960624632 163.40313701154992 184.5639663977432 161.86585568797352 188.42883595628672 161.7483972871199 192.8525672657743 163.15472981154437 197.4169634340466 166.0694316831623 201.691285155831 170.35885806274936 205.26564642014264 175.78146712096074 207.78279506885386 182.00650622496977 208.96581594924498 188.63961030678928 208.63961030678928 195.25332914681854 206.74448726007614 201.42021843038947 203.34081432875337 206.74593080251336 198.6043666994744 210.89974314603285 192.8127355449272 213.6401549409522 186.32384842512715 214.83357443849286 179.54826592913236 214.46464491594074 172.917400910991 212.6374109763908 166.8501225771712 209.56723453959475 161.72033281882364 205.56408685252265 157.82802685587598 201.00851100483627 155.37608030717072 196.322117298733 154.45456113667632 191.9348973983605 155.03378192380993 188.2518896540102 156.96663073513184 185.62177826491072 159.99999999999997 184.3098591170257 163.79442791017695 184.4774668169215 167.95043058478018 186.16945685105003 172.03948486405815 189.3107127158242 175.6372612804319 193.7119486395677 178.35653241904248 199.08435832631807 179.87720702967405 205.06197479151825 179.97116293886606 211.2300089302122 178.51995478226345 217.15697124626413 175.52402461192906 222.42808806446251 171.10270176168976 226.67742325503932 165.48499197055907 229.6162167924669 158.99186938124424 231.0552445770551 152.01144335909632 230.91946715996863 144.96892411153655 229.25383244170493 138.29371405922686 226.21978277401968 132.38617459719714 222.082737086389 127.58664303376929 217.1915178823977 124.14910015892224 211.95131703540727 122.22152857869256 206.79229490458536 121.83448357430557 202.13624560771294 122.89876196612182 198.3639111146069 125.21234957989267 195.78547655638323 128.47610903814504 194.61653267577913 132.31699242873574 194.96136776801293 136.31698040062784 196.80488359740082 140.0455055727528 200.01376161836373 143.0928481890421 204.3467891470545 145.1019166263536 209.47354544773526 145.7959504981219 214.99999999999997 145.0 220.49903968041517 142.65451733941086 225.54355971638265 138.8200072199035 229.7395546374595 133.6723760653123 232.7566454493675 127.48934029881026 234.35367788850127 120.62894670604935 234.3974084905101 113.50186904055818 232.87283073905473 106.53962722521852 229.8843412588758 100.16119140708098 225.6476556994118 94.74055825888023 220.4731006376121 90.57781159425811 214.74157598517226 87.87590941091449 208.8750502496874 86.72499581172555 203.30387457495343 87.09545325187361 198.43344795565972 88.8402333892569 194.61281629032737 91.70628594077314 192.10763810892877 95.35420006447669 191.07961149629128 99.38453650900368 191.57395614066075 103.36881039375366 193.51592035283767 106.88272416827078 196.71658367700098 109.53907596306938 200.88750552323216 111.01779369377499 205.66308489180958 111.09076796739932 210.6288988299209 109.63955981079678 215.35382404935004 106.66461127603004 219.42345302702924 102.28524530571666 222.47221561802587 96.73045485839793 224.21171750285617 90.32119491093977 224.45309989768535 83.44554928331996 223.12168816806556 76.52869626583633 220.2627944162883 70.00000000000009 216.03822447237005 64.25977725132209 210.71375990979618 59.64831436183306 204.63858493144332 56.419534833971454 198.2182520550713 54.721357682436306 191.88328111949602 54.58426831268767 186.05582444789582 55.91898740617846 181.11698083212184 58.52341840980253 177.37729073326923 62.0983353523725 175.05269862376193 66.27059554016151 174.24784482046385 70.62207868155008 174.94798129406615 74.72211032663596 177.0201377834176 78.16085755487994 180.2234478610612 80.58110951750365 184.22783491413853 81.70598057745661 188.63961030678925 81.36038969321072 193.03200045764976 79.48465188828776 196.97823769028898 76.13912877740319 200.08465108184507 71.49957783421176 202.021193535129 65.84356071573205 202.54703993203267 59.52896367263066 201.5292731018509 52.96629420351969 198.95320987064503 46.58690030707683 194.92356715581877 40.809574589230444 189.6563777521721 36.008130618755814 183.46228213810764 32.482463598272616 176.72249078724974 30.435337464849773 169.85927933499718 29.95669687023573 163.30330252527062 31.016719488743117 157.460259332725 33.46814693003684 152.6794919243112 37.057713659400534 149.22695129665044 41.445788445460984 147.26462411034828 46.2327065767465 146.83801465065613 50.989752710545815 147.87265175991615 55.29239390248994 150.17989136293215 58.75318802908106 153.47156501530597 61.05181796501792 157.3823395448332 61.95992456411177 161.49805542663336 61.358814463820565 165.38784832059304 59.24867076810385 168.63756509304096 55.74855299164784 170.88188535224492 51.087186265476525 171.8326598196483 45.58525342093517 171.30126996542825 39.63056189737693 169.21327654904994 33.64800945355812 165.6142221349157 28.066675633983934 160.66613801315003 23.2865886283873 154.63502614666558 19.64774231215025 147.87028598995352 17.40376391928137 140.77768010900658 16.70227248451376 133.78793312351033 17.57344981318312 127.32339680777136 19.92770945893864 121.76536401427154 23.562644306745433 117.42456381512754 28.178714483962757 114.51712378672337 33.402460151502254 113.14786178704509 38.81544072508136 113.30220171098793 43.986658412397304 114.84733955231707 48.50595399926553 117.54256941856106 52.01578749140995 121.05796946301554 54.23894135469117 124.99999999999997 55.0 128.9420305369844 54.23894135469119 132.457430581439 52.015787491409924 135.1526604476829 48.505953999265586 136.69779828901204 43.98665841239749 136.85213821295494 38.81544072508158 135.4828762132767 33.40246015150246 132.57543618487242 28.178714483962697 128.23463598572852 23.562644306745497 122.67660319222873 19.927709458938672 116.2120668764896 17.5734498131831 109.22231989099352 16.702272484513763 102.12971401004657 17.403763919281356 95.36497385333435 19.647742312150278 89.33386198685002 23.286588628387243 84.38577786508446 28.066675633983728 80.78672345095018 33.64800945355789 78.69873003457181 39.63056189737671 78.16734018035166 45.58525342093523 79.11811464775508 51.08718626547646 81.36243490695901 55.74855299164778 84.612151679407 59.24867076810388 88.50194457336659 61.358814463820536 92.61766045516663 61.95992456411179 96.52843498469389 61.051817965017975 99.8201086370678 58.7531880290811 102.12734824008383 55.29239390248999 103.16198534934385 50.989752710546 102.73537588965173 46.232706576746565 100.77304870334962 41.44578844546105 97.32050807568875 37.05771365940048 92.53974066727507 33.46814693003688 86.69669747472945 31.016719488743156 80.14072066500276 29.956696870235717 73.27750921275036 30.43533746484974 66.53771786189262 32.48246359827252 60.343622247827994 36.00813061875574 55.07643284418131 40.80957458923038 51.0467901293551 46.5869003070766 48.470726898149145 52.96629420351961 47.4529600679673 59.52896367263057 47.97880646487102 65.84356071573214 49.915348918154876 71.49957783421169 53.021762309710994 76.13912877740313 56.96799954235027 79.48465188828779 61.36038969321068 81.3603896932107 65.7721650858613 81.70598057745663 69.77655213893864 80.5811095175037 72.97986221658236 78.16085755487997 75.05201870593382 74.72211032663601 75.75215517953615 70.62207868155014 74.94730137623804 66.27059554016144 72.62270926673074 62.09833535237247 68.88301916787807 58.52341840980248 63.94417555210425 55.91898740617849 58.11671888050424 54.584268312687705 51.78174794492896 54.72135768243626 45.3614150685566 56.41953483397146 39.28624009020386 59.648314361833 33.961775527630024 64.259777251322 29.737205583711848 69.99999999999983 26.87831183193441 76.5286962658364 25.546900102314652 83.44554928331986 25.78828249714381 90.32119491093968 27.527784381974083 96.73045485839785 30.5765469729706 102.28524530571646 34.646175950649955 106.66461127603003 39.37110117007905 109.63955981079677 44.33691510819037 111.09076796739932 49.11249447676772 111.01779369377502 53.28341632299889 109.53907596306946 56.48407964716232 106.88272416827083 58.426043859339245 103.36881039375372 58.920388503708736 99.38453650900381 57.89236189107119 95.35420006447664 55.3871837096726 91.70628594077311 51.566552044340284 88.8402333892569 46.69612542504673 87.09545325187364 41.12494975031284 86.72499581172553 35.25842401482795 87.8759094109144 29.5268993623879 90.57781159425811 24.352344300588193 94.74055825888021 20.115658741124122 100.16119140708112 17.12716926094523 106.5396272252186 15.602591509489923 113.50186904055818 15.646322111498733 120.62894670604935 17.243354550632443 127.48934029881016 20.260445362540374 133.67237606531205 24.456440283617106 138.82000721990326 29.500960319584806 142.65451733941086 34.99999999999994 145.0 40.52645455226465 145.7959504981219 45.65321085294557 145.10191662635359 49.98623838163627 143.0928481890421 53.19511640259913 140.04550557275286 55.038632231987044 136.3169804006279 55.383467324220874 132.31699242873586 54.21452344361674 128.47610903814498 51.6360888853931 125.21234957989272 47.863754392287106 122.89876196612184 43.20770509541476 121.83448357430557 38.04868296459293 122.2215285786925 32.80848211760253 124.1491001589221 27.917262913611033 127.58664303376929 23.780217225980426 132.38617459719697 20.746167558295028 138.293714059227 19.080532840031367 144.96892411153667 18.944755422944894 152.01144335909632 20.38378320753308 158.99186938124413 23.32257674496058 165.4849919705589 27.571911935537305 171.10270176168956 32.843028753735574 175.52402461192887 38.76999106978779 178.51995478226345 44.93802520848157 179.97116293886603 50.91564167368205 179.87720702967403 56.28805136043235 178.35653241904248 60.6892872841758 175.63726128043191 63.830543148949936 172.0394848640582 65.52253318307848 167.9504305847803 65.69014088297433 163.79442791017712 64.37822173508928 159.99999999999997 61.74811034598986 156.96663073513187 58.065102601639545 155.03378192380993 53.67788270126716 154.45456113667632 48.991488995163934 155.37608030717064 44.435913147477365 157.82802685587598 40.43276546040531 161.72033281882358 37.362589023609274 166.85012257717105 35.53535508405926 172.91740091099112 35.16642556150717 179.54826592913233 36.3598450590478 186.3238484251271 39.10025685396712 192.8127355449271 43.25406919748649 198.60436669947424 48.57978156961032 203.34081432875323 54.74667085318107 206.744487260076 61.360389693210635 208.63961030678925 67.99349377503007 208.96581594924498 74.21853287903933 207.78279506885383 79.64114193725067 205.26564642014262 83.93056831683765 201.69128515583105 86.84527018845557 197.41696343404672 88.25160271288007 192.85256726577444 88.13414431202654 188.4288359562869 86.5968629884501 184.5639663977432 83.85503233952691 181.63118960624632 80.21852359491932 179.92983157029113 76.06776816251545 179.66210052475725 71.82425303229236 180.91739910041207 67.91783496329396 183.66537679689958 64.75340584891522 187.758261056417 62.679491924311264 192.9422863405993 61.96121965230974 198.87733573055232 62.75974280888792 205.16327329135342 65.11972469753766 211.370927064452 68.96584533788231 217.07532223634013 74.10860424960607 221.88858969567792 80.258969261662 225.4900003406861 87.05073641676364 227.65079818555097 94.06886861176909 228.25190828584226 100.88161740243879 227.29314753760022 107.07393929442064 224.89322473311128 112.2796175499565 221.28052987335366 116.20960083215776 216.77542635406286 118.67436311533567 211.7654179707231 119.59855250199 206.6751147224555 119.0267940164619 201.93332436601614 117.12019680520987 197.9398193580667 114.14383636477002 195.03435397349267 110.44618164275697 193.4703320513664 106.43206094122843 193.39516550509327 102.5312611434631 194.83884535538044 99.1651931005298 197.7116107660634 96.71420584145972 201.81089668022804 95.488082002201 206.83702177940054 95.70200039854572 212.41640131779155 97.45982809246658 218.13048638159566 100.7460364370455 223.5481874591659 105.426867428587 228.25927025508867 111.26066001211086 231.90613635484715 117.91653630430413 234.2115264828415" stroke="forestgreen" fill="transparent" stroke-width="2"/>
  <circle cx="125" cy="125" r="50" stroke="limegreen" fill="transparent" stroke-width="2"/>
  <line x1="85" x2="165" y1="85" y2="165" stroke="orangered" stroke-width="2"/>
</svg>
