<?xml version="1.0" standalone="no"?>
<svg width="500" height="500" version="1.1" xmlns="http://www.w3.org/2000/svg">
  <rect x="0" y="0" width="500" height="500" fill="white" stroke-width="0"/>
  <polygon points="125.0 166.66666666666669 134.25925925925927 166.66666666666669 138.88888888888889 158.64791292792188 143.5185185185185 166.66666666666669 152.77777777777777 166.66666666666669 157.4074074074074 158.64791292792188 152.77777777777777 150.62915918917707 162.03703703703704 150.62915918917707 166.66666666666666 142.61040545043227 171.29629629629628 150.62915918917707 180.55555555555554 150.62915918917707 175.92592592592592 158.64791292792188 180.55555555555554 166.66666666666669 189.8148148148148 166.66666666666669 194.44444444444443 158.64791292792188 199.07407407407405 166.66666666666669 208.33333333333331 166.66666666666669 212.96296296296293 158.64791292792188 208.33333333333331 150.62915918917707 217.59259259259258 150.62915918917707 222.2222222222222 142.61040545043227 217.59259259259258 134.59165171168746 208.33333333333331 134.59165171168746 212.96296296296293 126.57289797294266 208.33333333333331 118.55414423419785 217.59259259259258 118.55414423419785 222.2222222222222 110.53539049545304 226.85185185185182 118.55414423419785 236.1111111111111 118.55414423419785 240.7407407407407 110.53539049545304 236.1111111111111 102.51663675670824 245.37037037037035 102.51663675670824 249.99999999999997 94.49788301796343 254.6296296296296 102.51663675670824 263.88888888888886 102.51663675670824 259.25925925925924 110.53539049545304 263.88888888888886 118.55414423419785 273.1481481481481 118.55414423419785 277.7777777777777 110.53539049545304 282.40740740740733 118.55414423419785 291.6666666666666 118.55414423419785 287.03703703703695 126.57289797294266 291.6666666666666 134.59165171168746 282.40740740740733 134.59165171168746 277.7777777777777 142.61040545043227 282.40740740740733 150.62915918917707 291.6666666666666 150.62915918917707 287.03703703703695 158.64791292792188 291.6666666666666 166.66666666666669 300.9259259259258 166.66666666666669 305.55555555555543 158.64791292792188 310.18518518518505 166.66666666666669 319.4444444444443 166.66666666666669 324.0740740740739 158.64791292792188 319.4444444444443 150.62915918917707 328.7037037037035 150.62915918917707 333.33333333333314 142.61040545043227 337.96296296296276 150.62915918917707 347.222222222222 150.62915918917707 342.5925925925924 158.64791292792188 347.222222222222 166.66666666666669 356.48148148148124 166.66666666666669 361.11111111111086 158.64791292792188 365.7407407407405 166.66666666666669 374.9999999999997 166.66666666666669 370.3703703703701 174.6854204054115 374.9999999999997 182.7041741441563 365.7407407407405 182.7041741441563 361.11111111111086 190.7229278829011 365.7407407407405 198.7416816216459 374.9999999999997 198.7416816216459 370.3703703703701 206.76043536039072 374.9999999999997 214.77918909913552 365.7407407407405 214.77918909913552 361.11111111111086 222.79794283788033 356.48148148148124 214.77918909913552 347.222222222222 214.77918909913552 342.5925925925924 222.79794283788033 347.222222222222 230.81669657662513 337.96296296296276 230.81669657662513 333.33333333333314 238.83545031536994 337.96296296296276 246.85420405411475 347.222222222222 246.85420405411475 342.5925925925924 254.87295779285955 347.222222222222 262.89171153160436 356.48148148148124 262.89171153160436 361.11111111111086 254.87295779285955 365.7407407407405 262.89171153160436 374.9999999999997 262.89171153160436 370.3703703703701 270.91046527034916 374.9999999999997 278.92921900909397 365.7407407407405 278.92921900909397 361.11111111111086 286.9479727478388 365.7407407407405 294.9667264865836 374.9999999999997 294.9667264865836 370.3703703703701 302.9854802253284 374.9999999999997 311.0042339640732 365.7407407407405 311.0042339640732 361.11111111111086 319.022987702818 356.48148148148124 311.0042339640732 347.222222222222 311.0042339640732 342.5925925925924 319.022987702818 347.222222222222 327.0417414415628 337.96296296296276 327.0417414415628 333.33333333333314 335.0604951803076 328.7037037037035 327.0417414415628 319.4444444444443 327.0417414415628 324.0740740740739 319.022987702818 319.4444444444443 311.0042339640732 310.18518518518505 311.0042339640732 305.55555555555543 319.022987702818 300.9259259259258 311.0042339640732 291.6666666666666 311.0042339640732 287.03703703703695 319.022987702818 291.6666666666666 327.0417414415628 282.40740740740733 327.0417414415628 277.7777777777777 335.0604951803076 282.40740740740733 343.0792489190524 291.6666666666666 343.0792489190524 287.03703703703695 351.0980026577972 291.6666666666666 359.11675639654203 282.40740740740733 359.11675639654203 277.7777777777777 367.13551013528684 273.1481481481481 359.11675639654203 263.88888888888886 359.11675639654203 259.25925925925924 367.13551013528684 263.88888888888886 375.15426387403164 254.6296296296296 375.15426387403164 249.99999999999997 383.17301761277645 245.37037037037035 375.15426387403164 236.1111111111111 375.15426387403164 240.7407407407407 367.13551013528684 236.1111111111111 359.11675639654203 226.85185185185182 359.11675639654203 222.2222222222222 367.13551013528684 217.59259259259258 359.11675639654203 208.33333333333331 359.11675639654203 212.96296296296293 351.0980026577972 208.33333333333331 343.0792489190524 217.59259259259258 343.0792489190524 222.2222222222222 335.0604951803076 217.59259259259258 327.0417414415628 208.33333333333331 327.0417414415628 212.96296296296293 319.022987702818 208.33333333333331 311.0042339640732 199.07407407407405 311.0042339640732 194.44444444444443 319.022987702818 189.8148148148148 311.0042339640732 180.55555555555554 311.0042339640732 175.92592592592592 319.022987702818 180.55555555555554 327.0417414415628 171.29629629629628 327.0417414415628 166.66666666666666 335.0604951803076 162.03703703703704 327.0417414415628 152.77777777777777 327.0417414415628 157.4074074074074 319.022987702818 152.77777777777777 311.0042339640732 143.5185185185185 311.0042339640732 138.88888888888889 319.022987702818 134.25925925925927 311.0042339640732 125.00000000000001 311.0042339640732 129.62962962962965 302.9854802253284 125.00000000000001 294.9667264865836 134.25925925925927 294.9667264865836 138.88888888888889 286.9479727478388 134.25925925925927 278.92921900909397 125.00000000000001 278.92921900909397 129.62962962962965 270.91046527034916 125.00000000000001 262.89171153160436 134.25925925925927 262.89171153160436 138.88888888888889 254.87295779285955 143.51851851851853 262.89171153160436 152.7777777777778 262.89171153160436 157.40740740740742 254.87295779285955 152.7777777777778 246.85420405411475 162.03703703703707 246.85420405411475 166.66666666666669 238.83545031536994 162.03703703703707 230.81669657662513 152.7777777777778 230.81669657662513 157.40740740740742 222.79794283788033 152.7777777777778 214.77918909913552 143.51851851851853 214.77918909913552 138.8888888888889 222.79794283788033 134.2592592592593 214.77918909913552 125.00000000000004 214.77918909913552 129.62962962962968 206.76043536039072 125.00000000000004 198.7416816216459 134.2592592592593 198.7416816216459 138.8888888888889 190.7229278829011 134.2592592592593 182.7041741441563 125.00000000000004 182.7041741441563 129.62962962962968 174.6854204054115 125.00000000000004 166.66666666666669" stroke="forestgreen" fill="transparent" stroke-width="2"/>
</svg>
