<?xml version="1.0" standalone="no"?>
<svg width="500" height="500" version="1.1" xmlns="http://www.w3.org/2000/svg">
  <rect x="0" y="0" width="500" height="500" fill="white" stroke-width="0"/>
  <polygon points="125.0 166.66666666666669 128.08641975308643 166.66666666666669 129.62962962962965 163.99374875375176 131.17283950617286 166.66666666666669 134.2592592592593 166.66666666666669 135.8024691358025 163.99374875375176 134.2592592592593 161.32083084083683 137.34567901234573 161.32083084083683 138.88888888888894 158.6479129279219 140.43209876543216 161.32083084083683 143.5185185185186 161.32083084083683 141.97530864197537 163.99374875375176 143.5185185185186 166.66666666666669 146.60493827160502 166.66666666666669 148.14814814814824 163.99374875375176 149.69135802469145 166.66666666666669 152.77777777777789 166.66666666666669 154.3209876543211 163.99374875375176 152.77777777777789 161.32083084083683 155.86419753086432 161.32083084083683 157.40740740740753 158.6479129279219 155.86419753086432 155.97499501500698 152.77777777777789 155.97499501500698 154.3209876543211 153.30207710209206 152.77777777777789 150.62915918917713 155.86419753086432 150.62915918917713 157.40740740740753 147.9562412762622 158.95061728395075 150.62915918917713 162.03703703703718 150.62915918917713 163.5802469135804 147.9562412762622 162.03703703703718 145.28332336334728 165.1234567901236 145.28332336334728 166.66666666666683 142.61040545043235 168.20987654321004 145.28332336334728 171.29629629629648 145.28332336334728 169.75308641975326 147.9562412762622 171.29629629629648 150.62915918917713 174.3827160493829 150.62915918917713 175.92592592592612 147.9562412762622 177.46913580246934 150.62915918917713 180.55555555555577 150.62915918917713 179.01234567901255 153.30207710209206 180.55555555555577 155.97499501500698 177.46913580246934 155.97499501500698 175.92592592592612 158.6479129279219 177.46913580246934 161.32083084083683 180.55555555555577 161.32083084083683 179.01234567901255 163.99374875375176 180.55555555555577 166.66666666666669 183.6419753086422 166.66666666666669 185.18518518518542 163.99374875375176 186.72839506172863 166.66666666666669 189.81481481481507 166.66666666666669 191.35802469135828 163.99374875375176 189.81481481481507 161.32083084083683 192.9012345679015 161.32083084083683 194.4444444444447 158.6479129279219 195.98765432098793 161.32083084083683 199.07407407407436 161.32083084083683 197.53086419753114 163.99374875375176 199.07407407407436 166.66666666666669 202.1604938271608 166.66666666666669 203.703703703704 163.99374875375176 205.24691358024722 166.66666666666669 208.33333333333366 166.66666666666669 209.87654320987687 163.99374875375176 208.33333333333366 161.32083084083683 211.4197530864201 161.32083084083683 212.9629629629633 158.6479129279219 211.4197530864201 155.97499501500698 208.33333333333366 155.97499501500698 209.87654320987687 153.30207710209206 208.33333333333366 150.62915918917713 211.4197530864201 150.62915918917713 212.9629629629633 147.9562412762622 214.50617283950652 150.62915918917713 217.59259259259295 150.62915918917713 219.13580246913617 147.9562412762622 217.59259259259295 145.28332336334728 220.67901234567938 145.28332336334728 222.2222222222226 142.61040545043235 220.67901234567938 139.93748753751743 217.59259259259295 139.93748753751743 219.13580246913617 137.2645696246025 217.59259259259295 134.59165171168758 214.50617283950652 134.59165171168758 212.9629629629633 137.2645696246025 211.4197530864201 134.59165171168758 208.33333333333366 134.59165171168758 209.87654320987687 131.91873379877265 208.33333333333366 129.24581588585772 211.4197530864201 129.24581588585772 212.9629629629633 126.5728979729428 211.4197530864201 123.89998006002786 208.33333333333366 123.89998006002786 209.87654320987687 121.22706214711292 208.33333333333366 118.55414423419798 211.4197530864201 118.55414423419798 212.9629629629633 115.88122632128304 214.50617283950652 118.55414423419798 217.59259259259295 118.55414423419798 219.13580246913617 115.88122632128304 217.59259259259295 113.2083084083681 220.67901234567938 113.2083084083681 222.2222222222226 110.53539049545316 223.7654320987658 113.2083084083681 226.85185185185225 113.2083084083681 225.30864197530903 115.88122632128304 226.85185185185225 118.55414423419798 229.93827160493868 118.55414423419798 231.4814814814819 115.88122632128304 233.0246913580251 118.55414423419798 236.11111111111154 118.55414423419798 237.65432098765476 115.88122632128304 236.11111111111154 113.2083084083681 239.19753086419797 113.2083084083681 240.7407407407412 110.53539049545316 239.19753086419797 107.86247258253822 236.11111111111154 107.86247258253822 237.65432098765476 105.18955466962328 236.11111111111154 102.51663675670834 239.19753086419797 102.51663675670834 240.7407407407412 99.8437188437934 242.2839506172844 102.51663675670834 245.37037037037084 102.51663675670834 246.91358024691405 99.8437188437934 245.37037037037084 97.17080093087846 248.45679012345727 97.17080093087846 250.00000000000048 94.49788301796352 251.5432098765437 97.17080093087846 254.62962962963013 97.17080093087846 253.08641975308691 99.8437188437934 254.62962962963013 102.51663675670834 257.71604938271656 102.51663675670834 259.25925925925975 99.8437188437934 260.80246913580294 102.51663675670834 263.88888888888937 102.51663675670834 262.3456790123462 105.18955466962328 263.88888888888937 107.86247258253822 260.80246913580294 107.86247258253822 259.25925925925975 110.53539049545316 260.80246913580294 113.2083084083681 263.88888888888937 113.2083084083681 262.3456790123462 115.88122632128304 263.88888888888937 118.55414423419798 266.9753086419758 118.55414423419798 268.518518518519 115.88122632128304 270.0617283950622 118.55414423419798 273.1481481481486 118.55414423419798 274.6913580246918 115.88122632128304 273.1481481481486 113.2083084083681 276.23456790123504 113.2083084083681 277.7777777777782 110.53539049545316 279.3209876543214 113.2083084083681 282.40740740740785 113.2083084083681 280.86419753086466 115.88122632128304 282.40740740740785 118.55414423419798 285.4938271604943 118.55414423419798 287.03703703703746 115.88122632128304 288.58024691358065 118.55414423419798 291.6666666666671 118.55414423419798 290.1234567901239 121.22706214711292 291.6666666666671 123.89998006002786 288.58024691358065 123.89998006002786 287.03703703703746 126.5728979729428 288.58024691358065 129.24581588585772 291.6666666666671 129.24581588585772 290.1234567901239 131.91873379877265 291.6666666666671 134.59165171168758 288.58024691358065 134.59165171168758 287.03703703703746 137.2645696246025 285.4938271604943 134.59165171168758 282.40740740740785 134.59165171168758 280.86419753086466 137.2645696246025 282.40740740740785 139.93748753751743 279.3209876543214 139.93748753751743 277.7777777777782 142.61040545043235 279.3209876543214 145.28332336334728 282.40740740740785 145.28332336334728 280.86419753086466 147.9562412762622 282.40740740740785 150.62915918917713 285.4938271604943 150.62915918917713 287.03703703703746 147.9562412762622 288.58024691358065 150.62915918917713 291.6666666666671 150.62915918917713 290.1234567901239 153.30207710209206 291.6666666666671 155.97499501500698 288.58024691358065 155.97499501500698 287.03703703703746 158.6479129279219 288.58024691358065 161.32083084083683 291.6666666666671 161.32083084083683 290.1234567901239 163.99374875375176 291.6666666666671 166.66666666666669 294.7530864197535 166.66666666666669 296.2962962962967 163.99374875375176 297.8395061728399 166.66666666666669 300.9259259259263 166.66666666666669 302.4691358024695 163.99374875375176 300.9259259259263 161.32083084083683 304.01234567901275 161.32083084083683 305.55555555555594 158.6479129279219 307.0987654320991 161.32083084083683 310.18518518518556 161.32083084083683 308.6419753086424 163.99374875375176 310.18518518518556 166.66666666666669 313.271604938272 166.66666666666669 314.8148148148152 163.99374875375176 316.35802469135837 166.66666666666669 319.4444444444448 166.66666666666669 320.987654320988 163.99374875375176 319.4444444444448 161.32083084083683 322.53086419753123 161.32083084083683 324.0740740740744 158.6479129279219 322.53086419753123 155.97499501500698 319.4444444444448 155.97499501500698 320.987654320988 153.30207710209206 319.4444444444448 150.62915918917713 322.53086419753123 150.62915918917713 324.0740740740744 147.9562412762622 325.6172839506176 150.62915918917713 328.70370370370404 150.62915918917713 330.2469135802472 147.9562412762622 328.70370370370404 145.28332336334728 331.79012345679047 145.28332336334728 333.33333333333366 142.61040545043235 334.87654320987684 145.28332336334728 337.9629629629633 145.28332336334728 336.4197530864201 147.9562412762622 337.9629629629633 150.62915918917713 341.0493827160497 150.62915918917713 342.5925925925929 147.9562412762622 344.1358024691361 150.62915918917713 347.2222222222225 150.62915918917713 345.6790123456793 153.30207710209206 347.2222222222225 155.97499501500698 344.1358024691361 155.97499501500698 342.5925925925929 158.6479129279219 344.1358024691361 161.32083084083683 347.2222222222225 161.32083084083683 345.6790123456793 163.99374875375176 347.2222222222225 166.66666666666669 350.30864197530894 166.66666666666669 351.85185185185213 163.99374875375176 353.3950617283953 166.66666666666669 356.48148148148175 166.66666666666669 358.02469135802494 163.99374875375176 356.48148148148175 161.32083084083683 359.5679012345682 161.32083084083683 361.11111111111137 158.6479129279219 362.65432098765456 161.32083084083683 365.740740740741 161.32083084083683 364.1975308641978 163.99374875375176 365.740740740741 166.66666666666669 368.8271604938274 166.66666666666669 370.3703703703706 163.99374875375176 371.9135802469138 166.66666666666669 375.0000000000002 166.66666666666669 373.45679012345704 169.3395845795816 375.0000000000002 172.01250249249654 371.9135802469138 172.01250249249654 370.3703703703706 174.68542040541146 371.9135802469138 177.3583383183264 375.0000000000002 177.3583383183264 373.45679012345704 180.03125623124131 375.0000000000002 182.70417414415624 371.9135802469138 182.70417414415624 370.3703703703706 185.37709205707117 368.8271604938274 182.70417414415624 365.740740740741 182.70417414415624 364.1975308641978 185.37709205707117 365.740740740741 188.0500099699861 362.65432098765456 188.0500099699861 361.11111111111137 190.72292788290102 362.65432098765456 193.39584579581594 365.740740740741 193.39584579581594 364.1975308641978 196.06876370873087 365.740740740741 198.7416816216458 368.8271604938274 198.7416816216458 370.3703703703706 196.06876370873087 371.9135802469138 198.7416816216458 375.0000000000002 198.7416816216458 373.45679012345704 201.41459953456072 375.0000000000002 204.08751744747565 371.9135802469138 204.08751744747565 370.3703703703706 206.76043536039057 371.9135802469138 209.4333532733055 375.0000000000002 209.4333532733055 373.45679012345704 212.10627118622043 375.0000000000002 214.77918909913535 371.9135802469138 214.77918909913535 370.3703703703706 217.45210701205028 368.8271604938274 214.77918909913535 365.740740740741 214.77918909913535 364.1975308641978 217.45210701205028 365.740740740741 220.1250249249652 362.65432098765456 220.1250249249652 361.11111111111137 222.79794283788013 359.5679012345682 220.1250249249652 356.48148148148175 220.1250249249652 358.02469135802494 217.45210701205028 356.48148148148175 214.77918909913535 353.3950617283953 214.77918909913535 351.85185185185213 217.45210701205028 350.30864197530894 214.77918909913535 347.2222222222225 214.77918909913535 345.6790123456793 217.45210701205028 347.2222222222225 220.1250249249652 344.1358024691361 220.1250249249652 342.5925925925929 222.79794283788013 344.1358024691361 225.47086075079505 347.2222222222225 225.47086075079505 345.6790123456793 228.14377866370998 347.2222222222225 230.8166965766249 344.1358024691361 230.8166965766249 342.5925925925929 233.48961448953983 341.0493827160497 230.8166965766249 337.9629629629633 230.8166965766249 336.4197530864201 233.48961448953983 337.9629629629633 236.16253240245476 334.87654320987684 236.16253240245476 333.33333333333366 238.83545031536968 334.87654320987684 241.5083682282846 337.9629629629633 241.5083682282846 336.4197530864201 244.18128614119954 337.9629629629633 246.85420405411446 341.0493827160497 246.85420405411446 342.5925925925929 244.18128614119954 344.1358024691361 246.85420405411446 347.2222222222225 246.85420405411446 345.6790123456793 249.5271219670294 347.2222222222225 252.2000398799443 344.1358024691361 252.2000398799443 342.5925925925929 254.87295779285924 344.1358024691361 257.54587570577416 347.2222222222225 257.54587570577416 345.6790123456793 260.2187936186891 347.2222222222225 262.8917115316041 350.30864197530894 262.8917115316041 351.85185185185213 260.2187936186891 353.3950617283953 262.8917115316041 356.48148148148175 262.8917115316041 358.02469135802494 260.2187936186891 356.48148148148175 257.54587570577416 359.5679012345682 257.54587570577416 361.11111111111137 254.87295779285924 362.65432098765456 257.54587570577416 365.740740740741 257.54587570577416 364.1975308641978 260.2187936186891 365.740740740741 262.8917115316041 368.8271604938274 262.8917115316041 370.3703703703706 260.2187936186891 371.9135802469138 262.8917115316041 375.0000000000002 262.8917115316041 373.45679012345704 265.564629444519 375.0000000000002 268.237547357434 371.9135802469138 268.237547357434 370.3703703703706 270.91046527034894 371.9135802469138 273.5833831832639 375.0000000000002 273.5833831832639 373.45679012345704 276.25630109617885 375.0000000000002 278.9292190090938 371.9135802469138 278.9292190090938 370.3703703703706 281.60213692200875 368.8271604938274 278.9292190090938 365.740740740741 278.9292190090938 364.1975308641978 281.60213692200875 365.740740740741 284.2750548349237 362.65432098765456 284.2750548349237 361.11111111111137 286.94797274783866 362.65432098765456 289.6208906607536 365.740740740741 289.6208906607536 364.1975308641978 292.29380857366857 365.740740740741 294.9667264865835 368.8271604938274 294.9667264865835 370.3703703703706 292.29380857366857 371.9135802469138 294.9667264865835 375.0000000000002 294.9667264865835 373.45679012345704 297.6396443994985 375.0000000000002 300.31256231241343 371.9135802469138 300.31256231241343 370.3703703703706 302.9854802253284 371.9135802469138 305.65839813824334 375.0000000000002 305.65839813824334 373.45679012345704 308.3313160511583 375.0000000000002 311.00423396407325 371.9135802469138 311.00423396407325 370.3703703703706 313.6771518769882 368.8271604938274 311.00423396407325 365.740740740741 311.00423396407325 364.1975308641978 313.6771518769882 365.740740740741 316.35006978990316 362.65432098765456 316.35006978990316 361.11111111111137 319.0229877028181 359.5679012345682 316.35006978990316 356.48148148148175 316.35006978990316 358.02469135802494 313.6771518769882 356.48148148148175 311.00423396407325 353.3950617283953 311.00423396407325 351.85185185185213 313.6771518769882 350.30864197530894 311.00423396407325 347.2222222222225 311.00423396407325 345.6790123456793 313.6771518769882 347.2222222222225 316.35006978990316 344.1358024691361 316.35006978990316 342.5925925925929 319.0229877028181 344.1358024691361 321.69590561573307 347.2222222222225 321.69590561573307 345.6790123456793 324.368823528648 347.2222222222225 327.041741441563 344.1358024691361 327.041741441563 342.5925925925929 329.71465935447793 341.0493827160497 327.041741441563 337.9629629629633 327.041741441563 336.4197530864201 329.71465935447793 337.9629629629633 332.3875772673929 334.87654320987684 332.3875772673929 333.33333333333366 335.06049518030784 331.79012345679047 332.3875772673929 328.70370370370404 332.3875772673929 330.2469135802472 329.71465935447793 328.70370370370404 327.041741441563 325.6172839506176 327.041741441563 324.0740740740744 329.71465935447793 322.53086419753123 327.041741441563 319.4444444444448 327.041741441563 320.987654320988 324.368823528648 319.4444444444448 321.69590561573307 322.53086419753123 321.69590561573307 324.0740740740744 319.0229877028181 322.53086419753123 316.35006978990316 319.4444444444448 316.35006978990316 320.987654320988 313.6771518769882 319.4444444444448 311.00423396407325 316.35802469135837 311.00423396407325 314.8148148148152 313.6771518769882 313.271604938272 311.00423396407325 310.18518518518556 311.00423396407325 308.6419753086424 313.6771518769882 310.18518518518556 316.35006978990316 307.0987654320991 316.35006978990316 305.55555555555594 319.0229877028181 304.01234567901275 316.35006978990316 300.9259259259263 316.35006978990316 302.4691358024695 313.6771518769882 300.9259259259263 311.00423396407325 297.8395061728399 311.00423396407325 296.2962962962967 313.6771518769882 294.7530864197535 311.00423396407325 291.6666666666671 311.00423396407325 290.1234567901239 313.6771518769882 291.6666666666671 316.35006978990316 288.58024691358065 316.35006978990316 287.03703703703746 319.0229877028181 288.58024691358065 321.69590561573307 291.6666666666671 321.69590561573307 290.1234567901239 324.368823528648 291.6666666666671 327.041741441563 288.58024691358065 327.041741441563 287.03703703703746 329.71465935447793 285.4938271604943 327.041741441563 282.40740740740785 327.041741441563 280.86419753086466 329.71465935447793 282.40740740740785 332.3875772673929 279.3209876543214 332.3875772673929 277.7777777777782 335.06049518030784 279.3209876543214 337.7334130932228 282.40740740740785 337.7334130932228 280.86419753086466 340.40633100613775 282.40740740740785 343.0792489190527 285.4938271604943 343.0792489190527 287.03703703703746 340.40633100613775 288.58024691358065 343.0792489190527 291.6666666666671 343.0792489190527 290.1234567901239 345.75216683196766 291.6666666666671 348.4250847448826 288.58024691358065 348.4250847448826 287.03703703703746 351.09800265779757 288.58024691358065 353.7709205707125 291.6666666666671 353.7709205707125 290.1234567901239 356.4438384836275 291.6666666666671 359.1167563965424 288.58024691358065 359.1167563965424 287.03703703703746 361.7896743094574 285.4938271604943 359.1167563965424 282.40740740740785 359.1167563965424 280.86419753086466 361.7896743094574 282.40740740740785 364.46259222237234 279.3209876543214 364.46259222237234 277.7777777777782 367.1355101352873 276.23456790123504 364.46259222237234 273.1481481481486 364.46259222237234 274.6913580246918 361.7896743094574 273.1481481481486 359.1167563965424 270.0617283950622 359.1167563965424 268.518518518519 361.7896743094574 266.9753086419758 359.1167563965424 263.88888888888937 359.1167563965424 262.3456790123462 361.7896743094574 263.88888888888937 364.46259222237234 260.80246913580294 364.46259222237234 259.25925925925975 367.1355101352873 260.80246913580294 369.80842804820225 263.88888888888937 369.80842804820225 262.3456790123462 372.4813459611172 263.88888888888937 375.15426387403215 260.80246913580294 375.15426387403215 259.25925925925975 377.8271817869471 257.71604938271656 375.15426387403215 254.62962962963013 375.15426387403215 253.08641975308691 377.8271817869471 254.62962962963013 380.50009969986206 251.5432098765437 380.50009969986206 250.00000000000048 383.173017612777 248.45679012345727 380.50009969986206 245.37037037037084 380.50009969986206 246.91358024691405 377.8271817869471 245.37037037037084 375.15426387403215 242.2839506172844 375.15426387403215 240.7407407407412 377.8271817869471 239.19753086419797 375.15426387403215 236.11111111111154 375.15426387403215 237.65432098765476 372.4813459611172 236.11111111111154 369.80842804820225 239.19753086419797 369.80842804820225 240.7407407407412 367.1355101352873 239.19753086419797 364.46259222237234 236.11111111111154 364.46259222237234 237.65432098765476 361.7896743094574 236.11111111111154 359.1167563965424 233.0246913580251 359.1167563965424 231.4814814814819 361.7896743094574 229.93827160493868 359.1167563965424 226.85185185185225 359.1167563965424 225.30864197530903 361.7896743094574 226.85185185185225 364.46259222237234 223.7654320987658 364.46259222237234 222.2222222222226 367.1355101352873 220.67901234567938 364.46259222237234 217.59259259259295 364.46259222237234 219.13580246913617 361.7896743094574 217.59259259259295 359.1167563965424 214.50617283950652 359.1167563965424 212.9629629629633 361.7896743094574 211.4197530864201 359.1167563965424 208.33333333333366 359.1167563965424 209.87654320987687 356.4438384836275 208.33333333333366 353.7709205707125 211.4197530864201 353.7709205707125 212.9629629629633 351.09800265779757 211.4197530864201 348.4250847448826 208.33333333333366 348.4250847448826 209.87654320987687 345.75216683196766 208.33333333333366 343.0792489190527 211.4197530864201 343.0792489190527 212.9629629629633 340.40633100613775 214.50617283950652 343.0792489190527 217.59259259259295 343.0792489190527 219.13580246913617 340.40633100613775 217.59259259259295 337.7334130932228 220.67901234567938 337.7334130932228 222.2222222222226 335.06049518030784 220.67901234567938 332.3875772673929 217.59259259259295 332.3875772673929 219.13580246913617 329.71465935447793 217.59259259259295 327.041741441563 214.50617283950652 327.041741441563 212.9629629629633 329.71465935447793 211.4197530864201 327.041741441563 208.33333333333366 327.041741441563 209.87654320987687 324.368823528648 208.33333333333366 321.69590561573307 211.4197530864201 321.69590561573307 212.9629629629633 319.0229877028181 211.4197530864201 316.35006978990316 208.33333333333366 316.35006978990316 209.87654320987687 313.6771518769882 208.33333333333366 311.00423396407325 205.24691358024722 311.00423396407325 203.703703703704 313.6771518769882 202.1604938271608 311.00423396407325 199.07407407407436 311.00423396407325 197.53086419753114 313.6771518769882 199.07407407407436 316.35006978990316 195.98765432098793 316.35006978990316 194.4444444444447 319.0229877028181 192.9012345679015 316.35006978990316 189.81481481481507 316.35006978990316 191.35802469135828 313.6771518769882 189.81481481481507 311.00423396407325 186.72839506172863 311.00423396407325 185.18518518518542 313.6771518769882 183.6419753086422 311.00423396407325 180.55555555555577 311.00423396407325 179.01234567901255 313.6771518769882 180.55555555555577 316.35006978990316 177.46913580246934 316.35006978990316 175.92592592592612 319.0229877028181 177.46913580246934 321.69590561573307 180.55555555555577 321.69590561573307 179.01234567901255 324.368823528648 180.55555555555577 327.041741441563 177.46913580246934 327.041741441563 175.92592592592612 329.71465935447793 174.3827160493829 327.041741441563 171.29629629629648 327.041741441563 169.75308641975326 329.71465935447793 171.29629629629648 332.3875772673929 168.20987654321004 332.3875772673929 166.66666666666683 335.06049518030784 165.1234567901236 332.3875772673929 162.03703703703718 332.3875772673929 163.5802469135804 329.71465935447793 162.03703703703718 327.041741441563 158.95061728395075 327.041741441563 157.40740740740753 329.71465935447793 155.86419753086432 327.041741441563 152.77777777777789 327.041741441563 154.3209876543211 324.368823528648 152.77777777777789 321.69590561573307 155.86419753086432 321.69590561573307 157.40740740740753 319.0229877028181 155.86419753086432 316.35006978990316 152.77777777777789 316.35006978990316 154.3209876543211 313.6771518769882 152.77777777777789 311.00423396407325 149.69135802469145 311.00423396407325 148.14814814814824 313.6771518769882 146.60493827160502 311.00423396407325 143.5185185185186 311.00423396407325 141.97530864197537 313.6771518769882 143.5185185185186 316.35006978990316 140.43209876543216 316.35006978990316 138.88888888888894 319.0229877028181 137.34567901234573 316.35006978990316 134.2592592592593 316.35006978990316 135.8024691358025 313.6771518769882 134.2592592592593 311.00423396407325 131.17283950617286 311.00423396407325 129.62962962962965 313.6771518769882 128.08641975308643 311.00423396407325 125.00000000000001 311.00423396407325 126.54320987654322 308.3313160511583 125.0 305.65839813824334 128.08641975308643 305.65839813824334 129.62962962962965 302.9854802253284 128.08641975308643 300.31256231241343 125.00000000000001 300.31256231241343 126.54320987654322 297.6396443994985 125.0 294.9667264865835 128.08641975308643 294.9667264865835 129.62962962962965 292.29380857366857 131.17283950617286 294.9667264865835 134.2592592592593 294.9667264865835 135.8024691358025 292.29380857366857 134.2592592592593 289.6208906607536 137.34567901234573 289.6208906607536 138.88888888888894 286.94797274783866 137.34567901234573 284.2750548349237 134.2592592592593 284.2750548349237 135.8024691358025 281.60213692200875 134.2592592592593 278.9292190090938 131.17283950617286 278.9292190090938 129.62962962962965 281.60213692200875 128.08641975308643 278.9292190090938 125.00000000000001 278.9292190090938 126.54320987654322 276.25630109617885 125.0 273.5833831832639 128.08641975308643 273.5833831832639 129.62962962962965 270.91046527034894 128.08641975308643 268.237547357434 125.00000000000001 268.237547357434 126.54320987654322 265.564629444519 125.0 262.8917115316041 128.08641975308643 262.8917115316041 129.62962962962965 260.2187936186891 131.17283950617286 262.8917115316041 134.2592592592593 262.8917115316041 135.8024691358025 260.2187936186891 134.2592592592593 257.54587570577416 137.34567901234573 257.54587570577416 138.88888888888894 254.87295779285924 140.43209876543216 257.54587570577416 143.5185185185186 257.54587570577416 141.97530864197537 260.2187936186891 143.5185185185186 262.8917115316041 146.60493827160502 262.8917115316041 148.14814814814824 260.2187936186891 149.69135802469145 262.8917115316041 152.77777777777789 262.8917115316041 154.3209876543211 260.2187936186891 152.77777777777789 257.54587570577416 155.86419753086432 257.54587570577416 157.40740740740753 254.87295779285924 155.86419753086432 252.2000398799443 152.77777777777789 252.2000398799443 154.3209876543211 249.5271219670294 152.77777777777789 246.85420405411446 155.86419753086432 246.85420405411446 157.40740740740753 244.18128614119954 158.95061728395075 246.85420405411446 162.03703703703718 246.85420405411446 163.5802469135804 244.18128614119954 162.03703703703718 241.5083682282846 165.1234567901236 241.5083682282846 166.66666666666683 238.83545031536968 165.1234567901236 236.16253240245476 162.03703703703718 236.16253240245476 163.5802469135804 233.48961448953983 162.03703703703718 230.8166965766249 158.95061728395075 230.8166965766249 157.40740740740753 233.48961448953983 155.86419753086432 230.8166965766249 152.77777777777789 230.8166965766249 154.3209876543211 228.14377866370998 152.77777777777789 225.47086075079505 155.86419753086432 225.47086075079505 157.40740740740753 222.79794283788013 155.86419753086432 220.1250249249652 152.77777777777789 220.1250249249652 154.3209876543211 217.45210701205028 152.77777777777789 214.77918909913535 149.69135802469145 214.77918909913535 148.14814814814824 217.45210701205028 146.60493827160502 214.77918909913535 143.5185185185186 214.77918909913535 141.97530864197537 217.45210701205028 143.5185185185186 220.1250249249652 140.43209876543216 220.1250249249652 138.88888888888894 222.79794283788013 137.34567901234573 220.1250249249652 134.2592592592593 220.1250249249652 135.8024691358025 217.45210701205028 134.2592592592593 214.77918909913535 131.17283950617286 214.77918909913535 129.62962962962965 217.45210701205028 128.08641975308643 214.77918909913535 125.00000000000001 214.77918909913535 126.54320987654322 212.10627118622043 125.0 209.4333532733055 128.08641975308643 209.4333532733055 129.62962962962965 206.76043536039057 128.08641975308643 204.08751744747565 125.00000000000001 204.08751744747565 126.54320987654322 201.41459953456072 125.0 198.7416816216458 128.08641975308643 198.7416816216458 129.62962962962965 196.06876370873087 131.17283950617286 198.7416816216458 134.2592592592593 198.7416816216458 135.8024691358025 196.06876370873087 134.2592592592593 193.39584579581594 137.34567901234573 193.39584579581594 138.88888888888894 190.72292788290102 137.34567901234573 188.0500099699861 134.2592592592593 188.0500099699861 135.8024691358025 185.37709205707117 134.2592592592593 182.70417414415624 131.17283950617286 182.70417414415624 129.62962962962965 185.37709205707117 128.08641975308643 182.70417414415624 125.00000000000001 182.70417414415624 126.54320987654322 180.03125623124131 125.0 177.3583383183264 128.08641975308643 177.3583383183264 129.62962962962965 174.68542040541146 128.08641975308643 172.01250249249654 125.00000000000001 172.01250249249654 126.54320987654322 169.3395845795816 125.0 166.66666666666669" stroke="forestgreen" fill="transparent" stroke-width="2"/>
</svg>
