<?xml version="1.0" standalone="no"?>
<svg width="500" height="500" version="1.1" xmlns="http://www.w3.org/2000/svg">
  <rect x="0" y="0" width="500" height="500" fill="white" stroke-width="0"/>
  <polygon points="125.0 166.66666666666669 152.77777777777777 166.66666666666669 166.66666666666666 142.6104054504323 180.55555555555554 166.66666666666669 208.33333333333331 166.66666666666669 222.2222222222222 142.6104054504323 208.33333333333334 118.55414423419788 236.11111111111111 118.55414423419789 250.0 94.49788301796349 263.8888888888889 118.55414423419789 291.6666666666667 118.55414423419789 277.7777777777778 142.6104054504323 291.66666666666674 166.66666666666669 319.4444444444445 166.66666666666669 333.3333333333334 142.6104054504323 347.22222222222234 166.66666666666669 375.0000000000001 166.66666666666669 361.11111111111126 190.7229278829011 375.00000000000017 214.77918909913552 347.2222222222224 214.77918909913552 333.33333333333354 238.83545031536994 347.22222222222246 262.89171153160436 375.0000000000002 262.89171153160436 361.11111111111137 286.9479727478388 375.0000000000003 311.0042339640732 347.2222222222225 311.0042339640732 333.33333333333366 335.0604951803076 319.44444444444474 311.0042339640732 291.66666666666697 311.0042339640732 277.7777777777781 335.0604951803076 291.666666666667 359.11675639654203 263.88888888888926 359.11675639654203 250.00000000000037 383.17301761277645 236.11111111111148 359.11675639654203 208.3333333333337 359.11675639654203 222.22222222222257 335.0604951803076 208.33333333333368 311.0042339640732 180.5555555555559 311.0042339640732 166.66666666666703 335.0604951803076 152.77777777777814 311.0042339640732 125.00000000000037 311.0042339640732 138.88888888888923 286.9479727478388 125.00000000000033 262.89171153160436 152.7777777777781 262.8917115316043 166.66666666666697 238.83545031536988 152.77777777777808 214.7791890991355 125.00000000000031 214.7791890991355 138.88888888888917 190.72292788290108 125.00000000000027 166.66666666666669" stroke="forestgreen" fill="transparent" stroke-width="2"/>
</svg>
